<?xml version="1.0" encoding="UTF-8"?> <svg xmlns="http://www.w3.org/2000/svg" viewBox="1950 2450 100 100" width="100" height="100" data-guides="{&quot;vertical&quot;:[],&quot;horizontal&quot;:[]}"><path fill="#13ce66" stroke="none" fill-opacity="1" stroke-width="1" stroke-opacity="1" baseline-shift="baseline" color-interpolation-filters="linearRGB" color-interpolation="sRGB" color="rgb(51, 51, 51)" fill-rule="evenodd" font-stretch="normal" font-weight="normal" id="tSvg9e567b446d" title="Path 7" d="M 2049.3940000000002 2530.178 C 2042.9713333333334 2513.0246666666667 2036.5486666666666 2495.8713333333335 2030.126 2478.718C 2029.7922634619094 2477.8371391302667 2029.335024443576 2477.008182975792 2028.768 2476.256C 2028.649600391775 2475.915992426753 2028.4128572330112 2475.6299129881686 2028.101 2475.45C 2027.5174198236623 2474.8148138020942 2026.8534867949456 2474.258454735011 2026.126 2473.795C 2022.2976666666666 2471.3703333333333 2018.4693333333335 2468.9456666666665 2014.641 2466.521C 2013.9056666666668 2464.6093333333333 2013.1703333333332 2462.6976666666665 2012.435 2460.786C 2012.428 2460.769 2012.415 2460.755 2012.408 2460.738C 2012.359527184732 2460.6197771774832 2012.2956405840775 2460.5084799945207 2012.218 2460.407C 2012.213 2460.401 2012.21 2460.394 2012.206 2460.388C 2012.1014063012597 2460.261336300091 2011.977159255976 2460.1522825077955 2011.838 2460.065C 2011.7342832796069 2459.9971600432245 2011.6223932634969 2459.94272706269 2011.505 2459.903C 2011.4953333333333 2459.8993333333333 2011.4856666666667 2459.895666666667 2011.476 2459.892C 2011.3480432380052 2459.854010210515 2011.2154647611462 2459.8338205981086 2011.082 2459.832C 2011.066 2459.831 2011.051 2459.825 2011.034 2459.825C 2003.9013333333332 2459.825 1996.7686666666666 2459.825 1989.636 2459.825C 1989.015 2459.825 1988.458 2460.207 1988.236 2460.786C 1987.501 2462.698 1986.766 2464.61 1986.031 2466.522C 1982.2026666666666 2468.9466666666667 1978.3743333333334 2471.3713333333335 1974.546 2473.796C 1973.6874103312737 2474.3434815398778 1972.9178078400623 2475.0193287734114 1972.264 2475.8C 1971.5293930652708 2476.668336611953 1970.9486900788688 2477.655903716411 1970.547 2478.72C 1964.1236666666666 2495.8733333333334 1957.7003333333334 2513.0266666666666 1951.277 2530.18C 1951.133 2530.561 1951.152 2530.985 1951.328 2531.352C 1951.504 2531.719 1951.821 2532 1952.208 2532.129C 1956.738 2533.6366666666668 1961.268 2535.144333333333 1965.798 2536.652C 1966.5405480220768 2536.899528478519 1967.3485444666842 2536.534078872941 1967.653 2535.813C 1971.728 2526.1703333333335 1975.8029999999999 2516.527666666667 1979.878 2506.885C 1980.3916666666667 2509.251333333333 1980.9053333333334 2511.6176666666665 1981.419 2513.984C 1979.3033333333333 2522.089 1977.1876666666667 2530.194 1975.072 2538.299C 1974.8246507925114 2539.249543142511 1975.5418015840169 2540.1775902925306 1976.524 2540.178C 1992.5026666666668 2540.178 2008.4813333333334 2540.178 2024.46 2540.178C 2025.449291398638 2540.17727842723 2026.16734017342 2539.236421807269 2025.907 2538.282C 2023.69 2530.179666666667 2021.473 2522.077333333333 2019.256 2513.975C 2019.7693333333334 2511.6116666666667 2020.2826666666667 2509.2483333333334 2020.796 2506.885C 2024.8706666666667 2516.527666666667 2028.9453333333333 2526.1703333333335 2033.02 2535.813C 2033.324826493774 2536.5337170484254 2034.1324787311362 2536.899010972393 2034.875 2536.652C 2039.405 2535.144333333333 2043.935 2533.6366666666668 2048.465 2532.129C 2049.271815449593 2531.85968767829 2049.693500984216 2530.974102667236 2049.3940000000002 2530.178ZM 2024.521 2476.329 C 2024.935 2476.591 2025.306 2476.911 2025.655 2477.253C 2023.476 2485.197 2021.297 2493.141 2019.118 2501.085C 2019.005 2501.245 2018.912 2501.421 2018.868 2501.621C 2018.0793333333334 2505.2523333333334 2017.2906666666668 2508.8836666666666 2016.502 2512.515C 2005.7246666666667 2512.515 1994.9473333333333 2512.515 1984.17 2512.515C 1983.4470000000001 2509.1853333333333 1982.724 2505.855666666667 1982.001 2502.526C 1990.556 2495.697 1996.897 2488.535 2001.504 2482.149C 2001.591 2482.057 2001.661 2481.954 2001.721 2481.847C 2006.603 2475.025 2009.503 2469.129 2011.04 2465.516C 2011.3663333333334 2466.364666666667 2011.6926666666666 2467.213333333333 2012.019 2468.062C 2012.135 2468.363 2012.344 2468.618 2012.617 2468.791C 2016.585 2471.3036666666667 2020.5529999999999 2473.816333333333 2024.521 2476.329ZM 2000.385 2478.461 C 1995.632 2471.504 1993.029 2465.697 1991.89 2462.823C 1997.5556666666666 2462.823 2003.2213333333334 2462.823 2008.887 2462.823C 2008.006 2465.05 2006.253 2469.028 2003.307 2473.926C 2002.3781194219328 2475.466266154937 2001.4036896647194 2476.9785998099874 2000.385 2478.461ZM 1976.151 2476.329 C 1980.119 2473.815666666667 1984.087 2471.3023333333335 1988.055 2468.789C 1988.327 2468.617 1988.536 2468.361 1988.653 2468.06C 1988.997 2467.1653333333334 1989.341 2466.270666666667 1989.685 2465.376C 1991.153 2468.827 1993.928 2474.473 1998.542 2481.061C 1993.5386314767507 2487.8527753593075 1987.7064829811281 2493.992975217627 1981.181 2499.339C 1979.1533333333334 2491.9486666666667 1977.1256666666666 2484.5583333333334 1975.098 2477.168C 1975.4209155184737 2476.854795027046 1975.7735818885785 2476.5738006460883 1976.151 2476.329ZM 1965.429 2533.366 C 1961.8296666666668 2532.168 1958.2303333333334 2530.97 1954.631 2529.772C 1960.7466666666667 2513.441 1966.8623333333333 2497.11 1972.978 2480.779C 1974.9033333333334 2487.797 1976.8286666666668 2494.815 1978.754 2501.833C 1974.3123333333333 2512.344 1969.8706666666667 2522.855 1965.429 2533.366ZM 2022.493 2537.176 C 2007.817 2537.176 1993.141 2537.176 1978.465 2537.176C 1980.35 2529.9553333333333 1982.235 2522.7346666666667 1984.12 2515.514C 1988.6516666666666 2515.514 1993.1833333333334 2515.514 1997.715 2515.514C 1993.9056666666665 2519.3233333333333 1990.0963333333334 2523.132666666667 1986.287 2526.942C 1985.4564375224365 2527.7441840837346 1985.805725716612 2529.14465939341 1986.9157187504193 2529.4628555565428C 1987.44881614146 2529.6156759249943 1988.0227343014622 2529.4618950173644 1988.408 2529.063C 1992.384 2525.087 1996.36 2521.111 2000.336 2517.135C 2004.3123333333333 2521.111 2008.2886666666666 2525.087 2012.265 2529.063C 2012.558 2529.3559999999998 2012.942 2529.502 2013.326 2529.502C 2013.71 2529.502 2014.094 2529.3559999999998 2014.387 2529.063C 2014.9725729060856 2528.477250222529 2014.9725729069137 2527.527749776643 2014.387 2526.942C 2010.5773333333334 2523.132666666667 2006.7676666666666 2519.3233333333333 2002.958 2515.514C 2007.4943333333333 2515.514 2012.0306666666665 2515.514 2016.567 2515.514C 2018.5423333333333 2522.7346666666667 2020.5176666666666 2529.9553333333333 2022.493 2537.176ZM 2035.242 2533.366 C 2030.8216666666667 2522.905 2026.4013333333332 2512.444 2021.981 2501.983C 2023.9053333333334 2494.9676666666664 2025.8296666666668 2487.952333333333 2027.754 2480.937C 2033.849 2497.2153333333335 2039.944 2513.4936666666667 2046.039 2529.772C 2042.44 2530.97 2038.841 2532.168 2035.242 2533.366Z"></path><defs></defs></svg> 