<?xml version="1.0" encoding="UTF-8"?> <svg xmlns="http://www.w3.org/2000/svg" viewBox="1950 2450 100 100" width="100" height="100" data-guides="{&quot;vertical&quot;:[],&quot;horizontal&quot;:[]}"><path fill="#13ce66" stroke="none" fill-opacity="1" stroke-width="1" stroke-opacity="1" baseline-shift="baseline" color-interpolation-filters="linearRGB" color-interpolation="sRGB" color="rgb(51, 51, 51)" fill-rule="evenodd" font-stretch="normal" font-weight="normal" id="tSvg8ff5fa747a" title="Path 8" d="M 2044.232 2501.2 C 2034.903 2501.2 2025.574 2501.2 2016.245 2501.2C 2016.245 2492.0266666666666 2016.245 2482.8533333333335 2016.245 2473.68C 2016.245 2472.8515728752536 2015.573427124746 2472.18 2014.745 2472.18C 2004.9156666666668 2472.18 1995.0863333333334 2472.18 1985.257 2472.18C 1984.4285728752538 2472.18 1983.757 2472.8515728752536 1983.757 2473.68C 1983.757 2479.088333333333 1983.757 2484.496666666667 1983.757 2489.905C 1974.4279999999999 2489.905 1965.099 2489.905 1955.77 2489.905C 1954.9415728752538 2489.905 1954.27 2490.576572875254 1954.27 2491.405C 1954.27 2503.221666666667 1954.27 2515.0383333333334 1954.27 2526.855C 1954.27 2527.6834271247462 1954.9415728752538 2528.355 1955.77 2528.355C 1985.2576666666666 2528.355 2014.7453333333333 2528.355 2044.233 2528.355C 2045.0614271247462 2528.355 2045.733 2527.6834271247462 2045.733 2526.855C 2045.733 2518.8033333333333 2045.733 2510.7516666666666 2045.733 2502.7C 2045.7318971742868 2501.871640565688 2045.0603599845326 2501.2005519638924 2044.232 2501.2ZM 2042.732 2525.355 C 2014.2443333333333 2525.355 1985.7566666666667 2525.355 1957.269 2525.355C 1957.269 2514.5383333333334 1957.269 2503.721666666667 1957.269 2492.905C 1966.598 2492.905 1975.927 2492.905 1985.256 2492.905C 1986.0844271247463 2492.905 1986.756 2492.2334271247464 1986.756 2491.405C 1986.756 2485.996666666667 1986.756 2480.588333333333 1986.756 2475.18C 1995.5853333333334 2475.18 2004.4146666666666 2475.18 2013.244 2475.18C 2013.244 2484.3533333333335 2013.244 2493.5266666666666 2013.244 2502.7C 2013.244 2503.528427124746 2013.9155728752537 2504.2 2014.744 2504.2C 2024.073 2504.2 2033.402 2504.2 2042.731 2504.2C 2042.731 2511.2516666666666 2042.731 2518.3033333333333 2042.731 2525.355C 2042.7313333333334 2525.355 2042.7316666666666 2525.355 2042.732 2525.355Z"></path><path fill="#13ce66" stroke="none" fill-opacity="1" stroke-width="1" stroke-opacity="1" baseline-shift="baseline" color-interpolation-filters="linearRGB" color-interpolation="sRGB" color="rgb(51, 51, 51)" fill-rule="evenodd" font-stretch="normal" font-weight="normal" id="tSvg1409dedcb6c" title="Path 9" d="M 1970.002 2499.489 C 1968.1906597554623 2499.489 1967.0585720519637 2501.449833333333 1967.9642421742326 2503.0185C 1968.3845651407594 2503.7465207336127 1969.1613540669462 2504.195 1970.002 2504.195C 1971.8133402445376 2504.195 1972.9454279480362 2502.2341666666666 1972.0397578257675 2500.6655C 1971.6194348592405 2499.937479266387 1970.842645933054 2499.489 1970.002 2499.489ZM 2000 2481.614 C 1998.1886597572739 2481.613918994403 1997.0565895931334 2483.57470169963 1997.9621895615915 2485.143408867527C 1998.3824987656362 2485.8714809568405 1999.159316472005 2486.32 2000 2486.32C 2001.8113402445376 2486.32 2002.9434279480363 2484.3591666666666 2002.0377578257676 2482.7905C 2001.61741606177 2482.062446708213 2000.8406835271544 2481.6139624034904 2000 2481.614ZM 2030.5 2510.703 C 2028.6886597554624 2510.703 2027.5565720519637 2512.6638333333335 2028.4622421742326 2514.2325C 2028.8825651407594 2514.9605207336126 2029.659354066946 2515.409 2030.5 2515.409C 2032.3113402445376 2515.409 2033.4434279480363 2513.4481666666666 2032.5377578257674 2511.8795C 2032.1174348592406 2511.1514792663875 2031.340645933054 2510.703 2030.5 2510.703Z"></path><defs></defs></svg> 