<?xml version="1.0" encoding="UTF-8"?> <svg xmlns="http://www.w3.org/2000/svg" viewBox="1950 2450 100 100" width="100" height="100" data-guides="{&quot;vertical&quot;:[],&quot;horizontal&quot;:[]}"><path fill="#13ce66" stroke="none" fill-opacity="1" stroke-width="1" stroke-opacity="1" baseline-shift="baseline" color-interpolation-filters="linearRGB" color-interpolation="sRGB" color="rgb(51, 51, 51)" fill-rule="evenodd" font-stretch="normal" font-weight="normal" id="tSvg12c879df0d5" title="Path 6" d="M 1999.936 2502.438 C 1987.0720000000001 2502.438 1976.606 2512.904 1976.606 2525.767C 1976.606 2526.2523333333334 1976.606 2526.737666666667 1976.606 2527.223C 1992.159 2527.223 2007.712 2527.223 2023.265 2527.223C 2023.265 2526.737666666667 2023.265 2526.2523333333334 2023.265 2525.767C 2023.265 2512.904 2012.799 2502.438 1999.936 2502.438ZM 1979.568 2524.312 C 1980.317 2513.73 1989.166 2505.349 1999.935 2505.349C 2010.704 2505.349 2019.5529999999999 2513.729 2020.302 2524.312C 2006.724 2524.312 1993.146 2524.312 1979.568 2524.312ZM 1999.552 2500.052 C 2007.073 2500.052 2013.191 2493.933 2013.191 2486.413C 2013.191 2478.893 2007.0720000000001 2472.776 1999.552 2472.776C 1992.033 2472.776 1985.916 2478.894 1985.916 2486.413C 1985.917 2493.933 1992.034 2500.052 1999.552 2500.052ZM 1999.552 2475.687 C 2005.467 2475.687 2010.28 2480.499 2010.28 2486.413C 2010.28 2492.328 2005.467 2497.141 1999.552 2497.141C 1993.638 2497.141 1988.827 2492.328 1988.827 2486.413C 1988.828 2480.499 1993.638 2475.687 1999.552 2475.687ZM 1968.744 2510.962 C 1971.386 2510.962 1973.981 2511.667 1976.249 2513.001C 1976.741 2512.1646666666666 1977.233 2511.3283333333334 1977.725 2510.492C 1975.0021597029343 2508.8929768398316 1971.9016468788734 2508.0502662291583 1968.744 2508.051C 1958.975 2508.051 1951.028 2515.998 1951.028 2525.768C 1951.028 2526.253333333333 1951.028 2526.7386666666666 1951.028 2527.224C 1958.2536666666667 2527.224 1965.4793333333334 2527.224 1972.705 2527.224C 1972.705 2526.2536666666665 1972.705 2525.2833333333333 1972.705 2524.313C 1966.4733333333334 2524.313 1960.2416666666666 2524.313 1954.01 2524.313C 1954.743 2516.828 1961.072 2510.962 1968.744 2510.962ZM 1968.461 2505.224 C 1974.258 2505.224 1978.974 2500.509 1978.974 2494.713C 1978.974 2488.916 1974.258 2484.2 1968.461 2484.2C 1962.666 2484.2 1957.952 2488.916 1957.952 2494.713C 1957.951 2500.509 1962.666 2505.224 1968.461 2505.224ZM 1968.461 2487.111 C 1972.653 2487.111 1976.063 2490.521 1976.063 2494.713C 1976.063 2498.904 1972.653 2502.313 1968.461 2502.313C 1964.271 2502.313 1960.863 2498.904 1960.863 2494.713C 1960.862 2490.521 1964.271 2487.111 1968.461 2487.111ZM 2031.256 2508.051 C 2028.096 2508.051 2024.99 2508.895 2022.275 2510.492C 2022.7666666666667 2511.3283333333334 2023.2583333333334 2512.1646666666666 2023.75 2513.001C 2026.0254022174342 2511.6649875745134 2028.6163671037875 2510.9610559739513 2031.255 2510.962C 2038.9279999999999 2510.962 2045.256 2516.829 2045.989 2524.312C 2039.7586666666666 2524.312 2033.5283333333334 2524.312 2027.298 2524.312C 2027.298 2525.2823333333336 2027.298 2526.2526666666668 2027.298 2527.223C 2034.5223333333333 2527.223 2041.7466666666667 2527.223 2048.971 2527.223C 2048.971 2526.737666666667 2048.971 2526.2523333333334 2048.971 2525.767C 2048.972 2515.998 2041.025 2508.051 2031.256 2508.051ZM 2031.54 2505.224 C 2037.337 2505.224 2042.053 2500.509 2042.053 2494.713C 2042.053 2488.916 2037.337 2484.2 2031.54 2484.2C 2025.745 2484.2 2021.031 2488.916 2021.031 2494.713C 2021.031 2500.509 2025.745 2505.224 2031.54 2505.224ZM 2031.54 2487.111 C 2035.732 2487.111 2039.142 2490.521 2039.142 2494.713C 2039.142 2498.904 2035.732 2502.313 2031.54 2502.313C 2027.35 2502.313 2023.942 2498.904 2023.942 2494.713C 2023.942 2490.521 2027.35 2487.111 2031.54 2487.111Z"></path><defs></defs></svg> 